<?xml version="1.0" encoding="UTF-8" standalone="no"?>
<svg
   xmlns:dc="http://purl.org/dc/elements/1.1/"
   xmlns:cc="http://creativecommons.org/ns#"
   xmlns:rdf="http://www.w3.org/1999/02/22-rdf-syntax-ns#"
   xmlns:svg="http://www.w3.org/2000/svg"
   xmlns="http://www.w3.org/2000/svg"
   xmlns:sodipodi="http://sodipodi.sourceforge.net/DTD/sodipodi-0.dtd"
   xmlns:inkscape="http://www.inkscape.org/namespaces/inkscape"
   viewBox="0 0 576 576"
   version="1.1"
   id="svg8"
   sodipodi:docname="thumbnail.svg"
   inkscape:version="0.92.1 r15371"
   width="576"
   height="576">
  <metadata
     id="metadata14">
    <rdf:RDF>
      <cc:Work
         rdf:about="">
        <dc:format>image/svg+xml</dc:format>
        <dc:type
           rdf:resource="http://purl.org/dc/dcmitype/StillImage" />
        <dc:title></dc:title>
      </cc:Work>
    </rdf:RDF>
  </metadata>
  <defs
     id="defs12" />
  <sodipodi:namedview
     pagecolor="#ffffff"
     bordercolor="#666666"
     borderopacity="1"
     objecttolerance="10"
     gridtolerance="10"
     guidetolerance="10"
     inkscape:pageopacity="0"
     inkscape:pageshadow="2"
     inkscape:window-width="1920"
     inkscape:window-height="1027"
     id="namedview10"
     showgrid="false"
     inkscape:zoom="0.70710678"
     inkscape:cx="17.874188"
     inkscape:cy="329.18564"
     inkscape:window-x="0"
     inkscape:window-y="0"
     inkscape:window-maximized="1"
     inkscape:current-layer="svg8"
     showguides="true"
     inkscape:guide-bbox="true">
    <sodipodi:guide
       position="544,659.52542"
       orientation="1,0"
       id="guide4488"
       inkscape:locked="false"
       inkscape:label=""
       inkscape:color="rgb(0,0,255)" />
    <sodipodi:guide
       position="-164.14465,32.215306"
       orientation="0,1"
       id="guide4490"
       inkscape:locked="false"
       inkscape:label=""
       inkscape:color="rgb(0,0,255)" />
  </sodipodi:namedview>
  <path
     d="M 0,0 H 576 V 576 H 0 Z"
     id="path2"
     inkscape:connector-curvature="0"
     style="fill:#000000;fill-opacity:1;stroke-width:1.125" />
  <path
     style="fill:#ffffff;fill-opacity:1;stroke-width:1.12004793"
     inkscape:connector-curvature="0"
     id="path4"
     d="m 146.99999,32 c -30.72286,0 -56.011688,22.451784 -60.641831,52.014836 2.326796,-0.202248 4.671458,-0.329216 7.049609,-0.329216 20.494562,0 39.248502,7.69217 53.592222,20.33717 14.34709,-12.642753 33.09881,-20.33717 53.59225,-20.33717 2.37815,0 4.72281,0.126968 7.04961,0.329216 C 203.01171,54.452908 177.72288,32 146.99999,32 Z M 93.407768,103.91043 C 59.374468,103.91043 32,131.45887 32,165.70845 c 0,17.16524 6.87767,32.64621 18.020389,43.82041 h 81.756061 c -8.01874,-12.69218 -12.68907,-27.71922 -12.68907,-43.82041 0,-17.34053 5.40834,-33.44059 14.59271,-46.71256 -10.76534,-9.40004 -24.82771,-15.08546 -40.272322,-15.08546 z m 107.184472,0 c -34.03331,0 -61.40779,27.54844 -61.40779,61.79802 0,17.16524 6.87767,32.64621 18.02041,43.82041 h 86.77476 C 255.12234,198.35466 262,182.87369 262,165.70845 262,131.45887 234.62554,103.91043 200.59224,103.91043 Z M 96.855534,229.75367 146.99999,248.10431 197.14447,229.75367 Z M 55.193156,236.0301 67.469129,277.20781 117.59349,258.86616 55.19204,236.0301 Z m 183.613704,0 -62.40147,22.83381 50.12549,18.3439 z m -91.80687,33.59566 -62.479597,22.86527 62.479597,27.94394 62.47963,-27.94394 z m -69.284695,41.95299 10.480631,35.15746 34.062314,-15.23602 z m 138.569425,0 -44.54297,19.92144 34.06233,15.23602 z m -69.28473,30.9889 -47.915911,21.43269 47.915911,24.10909 47.91593,-24.11022 -47.91593,-21.43268 z m -46.74023,44.63728 6.33057,21.23942 17.93777,-9.02701 -24.26834,-12.21354 z m 93.48049,0 -24.26834,12.21241 17.93776,9.02589 z m -46.74026,23.52033 -34.548,17.38434 5.09573,17.09334 29.45341,14.82029 29.45339,-14.82029 5.09461,-17.09334 -34.54914,-17.38659 z m 0,71.91042 -15.90796,8.00342 15.90796,53.3609 15.90798,-53.36203 -15.90798,-8.0034 z" />
  <path
     inkscape:connector-curvature="0"
     style="fill:#ffffff;fill-opacity:1;stroke-width:0.4942596"
     d="m 394.75261,314.00189 c -8.07737,-0.21136 -8.82013,17.40986 3.31697,23.50425 8.44902,-20.49235 45.40717,1.61431 40.333,10.53102 -4.1963,7.37547 -22.92281,-4.91055 -24.55677,-2.94231 -4.44078,5.34896 12.41917,15.78667 27.43829,22.68921 l 14.93794,-14.90249 c 5.1756,-5.16382 10.73322,-8.64174 16.33094,-10.6895 -16.56749,-9.42027 -48.0541,-25.39402 -77.40992,-28.166 -0.13156,-0.0138 -0.26227,-0.0207 -0.39045,-0.0246 z m -65.5603,11.61859 c -4.55209,8.11252 -9.87963,15.84788 -3.99837,40.67219 l 23.36124,95.68264 c 1.84182,-2.92749 4.12504,-5.7977 6.89321,-8.55929 l 19.39952,-19.35346 -24.16142,-73.48661 c -4.97965,-14.20197 -12.97193,-26.6756 -21.49418,-34.95547 z m 156.13763,22.78792 c -7.19508,-0.0206 -15.11214,3.07558 -22.81,10.75565 L 361.74584,459.699 c -15.3962,15.35912 -12.42168,31.59206 -2.79887,41.19204 9.6223,9.59946 25.89386,12.56692 41.29004,-2.79271 L 501.01066,397.56337 c 15.39617,-15.35914 12.42166,-31.59208 2.79884,-41.19202 -4.81139,-4.79949 -11.28449,-7.94122 -18.47956,-7.96295 z m -145.98534,10.93979 7.39945,26.37791 -8.57769,2.39481 -7.39945,-26.37842 z m 134.37325,4.7037 8.0477,8.02861 8.04721,-8.02861 6.29841,6.28346 -8.0477,8.02811 8.0477,8.02861 -6.29841,6.28395 -8.04721,-8.02811 -8.0477,8.02811 -6.29891,-6.28395 8.0472,-8.02861 -8.0472,-8.02811 z m 40.50966,31.19467 c -1.84625,2.94131 -4.13838,5.82535 -6.91943,8.59979 l -12.81457,12.78414 9.07451,6.11168 -6.2311,9.45085 10.87624,5.99516 -6.34543,9.70858 10.67681,6.86205 -8.2867,11.06567 11.3132,4.88439 -5.4572,9.97122 10.01225,7.25056 -3.90581,17.48193 L 544,490.73422 Z m -67.10521,68.64272 -6.29743,6.28248 6.96942,6.85266 a 4.4536243,4.4430535 0 0 0 4.28637,1.12558 l 6.434,-1.73278 -6.09304,13.61252 c -1.70327,3.8077 2.31389,7.64796 6.05444,5.78833 l 8.75436,-4.35668 -5.21817,9.42619 c -2.12736,3.84471 2.02887,8.10956 5.94113,6.09684 l 8.27632,-4.26039 -3.54904,6.41628 c -1.85419,3.35399 1.12974,7.32067 4.87572,6.48142 l 11.35575,-2.54538 c 3.75985,0.34803 4.23193,0.34507 6.72746,-0.31299 l -2.13082,-7.68697 a 4.4536243,4.4430535 0 0 0 -4.14237,-1.21049 l -4.10375,0.92021 5.84412,-10.56459 c 2.1234,-3.84424 -2.03035,-8.10561 -5.94111,-6.09489 l -8.26842,4.25498 5.04892,-9.11961 c 2.1135,-3.81708 -1.97491,-8.07107 -5.88669,-6.12451 l -10.43733,5.19393 4.84704,-10.82774 c 1.52808,-3.41819 -1.60429,-7.07432 -5.22656,-6.10079 l -13.01597,3.50409 z M 355.52956,509.73171 314,544.00001 369.80541,516.51625 c -5.284,-1.16801 -10.16368,-3.51394 -14.27635,-6.78502 z"
     id="path18" />
</svg>
